<svg width="105" height="151" viewBox="0 0 105 151" fill="none" xmlns="http://www.w3.org/2000/svg">
<g filter="url(#filter0_d_170_6)">
<path d="M40.3006 5.59788C36.8789 8.20283 32.2297 12.2591 29.8493 14.678L27.8037 16.7619L35.5399 24.5024L43.2389 32.2056V17.9528C43.2389 10.1379 43.1273 3.7372 42.9786 3.7372C42.7926 3.77441 41.6024 4.59311 40.3006 5.59788Z" fill="#DEFF99"/>
<path d="M61.8354 17.9528V32.2056L69.5716 24.4651L77.2706 16.7247L73.8489 13.4499C70.7246 10.4729 63.0256 4.07212 62.2074 3.81163C61.9842 3.7372 61.8354 8.98431 61.8354 17.9528Z" fill="#DEFF99"/>
<path d="M23.0428 22.0467C20.8855 24.5772 16.162 31.3501 14.9718 33.6201L14.042 35.3692L28.6589 49.9569L43.2387 64.5818V51.371V38.1602L34.2007 29.1173C29.254 24.1679 25.0884 20.1116 24.9396 20.1116C24.828 20.1116 23.9354 21.0047 23.0428 22.0467Z" fill="#DEFF99"/>
<path d="M70.8362 29.1545L61.8354 38.1602V51.371V64.5818L76.3408 50.0685C84.3374 42.1048 90.8462 35.3692 90.8462 35.1459C90.8462 34.0667 80.8412 20.1116 80.0601 20.1116C79.9486 20.1116 75.8201 24.1679 70.8362 29.1545Z" fill="#DEFF99"/>
<path d="M9.98824 43.4813C8.64929 46.6817 5.67383 55.8734 5.67383 56.841C5.67383 56.9526 11.4388 62.8324 18.5055 69.8657L31.3372 82.7044V108.047V133.426L34.4614 136.143C36.1723 137.632 38.813 139.79 40.3379 140.906L43.053 142.953L43.1646 106.744L43.239 70.5356L27.7294 55.0175C19.175 46.4584 12.0711 39.4622 11.9223 39.4622C11.8107 39.4622 10.9181 41.2857 9.98824 43.4813Z" fill="#DEFF99"/>
<path d="M77.345 55.0176L61.8354 70.5357L61.9098 106.782L62.0214 142.99L65.4432 140.348C67.34 138.897 69.9808 136.664 71.3197 135.436L73.7373 133.166V107.824V82.4812L86.569 69.6054L99.4006 56.7667L98.2476 52.6732C97.0946 48.5797 93.5613 39.4624 93.115 39.4624C93.0034 39.4624 85.8995 46.4585 77.345 55.0176Z" fill="#DEFF99"/>
<path d="M4.33474 65.4005C4.14877 67.2239 4 70.7964 4 73.4014V78.1275L9.69057 83.8584L15.3439 89.5521V101.609V113.666L17.3152 116.644C20.0303 120.811 26.4275 128.775 27.0598 128.775C27.1714 128.775 27.2458 118.802 27.2458 106.596V84.3794L16.125 73.2897C9.98811 67.1495 4.89264 62.1629 4.81825 62.1629C4.70667 62.1629 4.48351 63.6142 4.33474 65.4005Z" fill="#DEFF99"/>
<path d="M88.875 73.2523L77.8286 84.3047V106.633L77.8658 128.961L79.837 126.84C82.2174 124.346 84.635 121.221 87.5732 116.941L89.7305 113.741V101.535V89.3285L95.3466 83.672L101 78.0528L100.814 70.4612C100.702 66.2933 100.479 62.7208 100.293 62.5348C100.07 62.3115 95.793 66.3305 88.875 73.2523Z" fill="#DEFF99"/>
<path d="M4.92993 85.5701C4.92993 87.133 7.08714 95.3572 8.53768 99.2274C11.1412 106.372 11.2156 106.335 11.2528 98.2599V91.3754L8.09136 88.2122C6.34327 86.4632 4.92993 85.3096 4.92993 85.5701Z" fill="#DEFF99"/>
<path d="M96.797 88.026L93.8215 90.9286L93.8587 98.2225L93.8959 105.516L94.7514 103.656C96.7598 99.4505 100.591 85.942 99.9956 85.3094C99.884 85.1978 98.4335 86.4258 96.797 88.026Z" fill="#DEFF99"/>
<path d="M57.0215 7.79175H48.4243V142.422H57.0215V7.79175Z" fill="#DEFF99"/>
<path d="M52.7179 0L57.1015 7.80174H48.3342L52.7179 0Z" fill="#DEFF99"/>
</g>
<defs>
<filter id="filter0_d_170_6" x="0" y="0" width="105" height="150.99" filterUnits="userSpaceOnUse" color-interpolation-filters="sRGB">
<feFlood flood-opacity="0" result="BackgroundImageFix"/>
<feColorMatrix in="SourceAlpha" type="matrix" values="0 0 0 0 0 0 0 0 0 0 0 0 0 0 0 0 0 0 127 0" result="hardAlpha"/>
<feOffset dy="4"/>
<feGaussianBlur stdDeviation="2"/>
<feComposite in2="hardAlpha" operator="out"/>
<feColorMatrix type="matrix" values="0 0 0 0 0 0 0 0 0 0 0 0 0 0 0 0 0 0 0.25 0"/>
<feBlend mode="normal" in2="BackgroundImageFix" result="effect1_dropShadow_170_6"/>
<feBlend mode="normal" in="SourceGraphic" in2="effect1_dropShadow_170_6" result="shape"/>
</filter>
</defs>
</svg>
