<svg width="307" height="313" viewBox="0 0 307 313" fill="none" xmlns="http://www.w3.org/2000/svg">
<g filter="url(#filter0_d_150_63)">
<path d="M153.5 302.5C234.734 302.5 300.5 235.294 300.5 152.5C300.5 69.706 234.734 2.5 153.5 2.5C72.266 2.5 6.5 69.706 6.5 152.5C6.5 235.294 72.266 302.5 153.5 302.5Z" stroke="#FAFF00" stroke-width="5" shape-rendering="crispEdges"/>
</g>
<g filter="url(#filter1_d_150_63)">
<path d="M134.211 48.6684C128.913 52.7021 121.713 58.9832 118.027 62.7289L114.86 65.9558L126.839 77.9418L138.761 89.8701V67.7998C138.761 55.6986 138.588 45.7872 138.358 45.7872C138.07 45.8448 136.227 47.1125 134.211 48.6684Z" fill="#DEFF99"/>
<path d="M167.558 67.7998V89.8701L179.537 77.8842L191.459 65.8982L186.16 60.8272C181.322 56.2173 169.401 46.3058 168.134 45.9024C167.788 45.7872 167.558 53.9123 167.558 67.7998Z" fill="#DEFF99"/>
<path d="M107.488 74.1386C104.147 78.057 96.833 88.5448 94.99 92.0599L93.5502 94.7682L116.184 117.357L138.761 140.004V119.547V99.0901L124.766 85.0873C117.106 77.4232 110.655 71.1421 110.425 71.1421C110.252 71.1421 108.87 72.5251 107.488 74.1386Z" fill="#DEFF99"/>
<path d="M181.495 85.1449L167.558 99.0901V119.547V140.004L190.019 117.53C202.402 105.198 212.48 94.7682 212.48 94.4225C212.48 92.7514 196.988 71.1421 195.778 71.1421C195.606 71.1421 189.213 77.4232 181.495 85.1449Z" fill="#DEFF99"/>
<path d="M87.2725 107.33C85.1992 112.286 80.5917 126.519 80.5917 128.018C80.5917 128.191 89.5187 137.295 100.461 148.186L120.331 168.067V207.309V246.609L125.169 250.816C127.818 253.121 131.907 256.463 134.269 258.192L138.473 261.361L138.646 205.292L138.761 149.224L114.745 125.194C101.498 111.94 90.4978 101.107 90.2674 101.107C90.0946 101.107 88.7124 103.93 87.2725 107.33Z" fill="#DEFF99"/>
<path d="M191.574 125.194L167.558 149.224L167.673 205.35L167.846 261.419L173.144 257.328C176.081 255.08 180.171 251.623 182.244 249.721L185.987 246.206V206.964V167.721L205.857 147.783L225.727 127.902L223.941 121.564C222.156 115.225 216.685 101.107 215.994 101.107C215.821 101.107 204.82 111.94 191.574 125.194Z" fill="#DEFF99"/>
<path d="M78.5183 141.271C78.2304 144.095 78 149.627 78 153.661V160.979L86.8118 169.853L95.566 178.67V197.34V216.011L98.6184 220.621C102.823 227.075 112.729 239.406 113.708 239.406C113.881 239.406 113.996 223.963 113.996 205.062V170.66L96.7754 153.488C87.2725 143.98 79.3822 136.258 79.2671 136.258C79.0943 136.258 78.7487 138.505 78.5183 141.271Z" fill="#DEFF99"/>
<path d="M209.428 153.43L192.323 170.545V205.119L192.38 239.694L195.433 236.41C199.119 232.549 202.862 227.708 207.412 221.082L210.753 216.126V197.225V178.324L219.449 169.565L228.203 160.864L227.915 149.108C227.743 142.654 227.397 137.122 227.109 136.834C226.763 136.488 220.14 142.712 209.428 153.43Z" fill="#DEFF99"/>
<path d="M79.4399 172.504C79.4399 174.924 82.7803 187.659 85.0264 193.652C89.058 204.716 89.1732 204.659 89.2307 192.154V181.493L84.3353 176.595C81.6284 173.887 79.4399 172.101 79.4399 172.504Z" fill="#DEFF99"/>
<path d="M221.695 176.307L217.088 180.802L217.145 192.096L217.203 203.391L218.528 200.509C221.638 193.998 227.57 173.08 226.648 172.1C226.476 171.928 224.229 173.829 221.695 176.307Z" fill="#DEFF99"/>
<path d="M160.103 52.0649H146.79V260.538H160.103V52.0649Z" fill="#DEFF99"/>
<path d="M153.439 40L160.227 52.0809H146.651L153.439 40Z" fill="#DEFF99"/>
</g>
<defs>
<filter id="filter0_d_150_63" x="0" y="0" width="307" height="313" filterUnits="userSpaceOnUse" color-interpolation-filters="sRGB">
<feFlood flood-opacity="0" result="BackgroundImageFix"/>
<feColorMatrix in="SourceAlpha" type="matrix" values="0 0 0 0 0 0 0 0 0 0 0 0 0 0 0 0 0 0 127 0" result="hardAlpha"/>
<feOffset dy="4"/>
<feGaussianBlur stdDeviation="2"/>
<feComposite in2="hardAlpha" operator="out"/>
<feColorMatrix type="matrix" values="0 0 0 0 0 0 0 0 0 0 0 0 0 0 0 0 0 0 0.25 0"/>
<feBlend mode="normal" in2="BackgroundImageFix" result="effect1_dropShadow_150_63"/>
<feBlend mode="normal" in="SourceGraphic" in2="effect1_dropShadow_150_63" result="shape"/>
</filter>
<filter id="filter1_d_150_63" x="74" y="40" width="158.203" height="229.419" filterUnits="userSpaceOnUse" color-interpolation-filters="sRGB">
<feFlood flood-opacity="0" result="BackgroundImageFix"/>
<feColorMatrix in="SourceAlpha" type="matrix" values="0 0 0 0 0 0 0 0 0 0 0 0 0 0 0 0 0 0 127 0" result="hardAlpha"/>
<feOffset dy="4"/>
<feGaussianBlur stdDeviation="2"/>
<feComposite in2="hardAlpha" operator="out"/>
<feColorMatrix type="matrix" values="0 0 0 0 0 0 0 0 0 0 0 0 0 0 0 0 0 0 0.25 0"/>
<feBlend mode="normal" in2="BackgroundImageFix" result="effect1_dropShadow_150_63"/>
<feBlend mode="normal" in="SourceGraphic" in2="effect1_dropShadow_150_63" result="shape"/>
</filter>
</defs>
</svg>
