<svg width="351" height="518" viewBox="0 0 351 518" fill="#B6A885" xmlns="http://www.w3.org/2000/svg">
<g clip-path="url(#clip0_16_2)">
<rect width="351" height="518"/>
<path d="M131.356 20.2567C118.974 29.6828 102.151 44.3607 93.5372 53.1135L86.135 60.6545L114.129 88.6636L141.988 116.538V64.9636C141.988 36.6851 141.584 13.5237 141.046 13.5237C140.373 13.6583 136.066 16.6208 131.356 20.2567Z" fill="#FFFFFF"/>
<path d="M209.281 64.9636V116.538L237.275 88.5289L265.134 60.5198L252.752 48.6698C241.447 37.897 213.588 14.7356 210.627 13.793C209.819 13.5237 209.281 32.5107 209.281 64.9636Z" fill="#FFFFFF"/>
<path d="M68.9079 79.776C61.102 88.9328 44.0096 113.441 39.7028 121.655L36.3382 127.984L89.2304 180.771L141.988 233.692V185.888V138.084L109.284 105.361C91.3838 87.4516 76.3102 72.7737 75.7718 72.7737C75.3681 72.7737 72.138 76.0056 68.9079 79.776Z" fill="#FFFFFF"/>
<path d="M241.851 105.496L209.281 138.084V185.888V233.692L261.77 181.175C290.706 152.357 314.258 127.984 314.258 127.176C314.258 123.271 278.054 72.7737 275.228 72.7737C274.824 72.7737 259.885 87.4516 241.851 105.496Z" fill="#FFFFFF"/>
<path d="M21.6684 157.339C16.8233 168.92 6.0564 202.181 6.0564 205.682C6.0564 206.086 26.9172 227.362 52.4885 252.813L98.9206 299.27V390.973V482.811L110.226 492.641C116.417 498.027 125.972 505.838 131.49 509.877L141.315 517.284L141.719 386.26L141.988 255.237L85.8658 199.084C54.9111 168.112 29.2052 142.796 28.6668 142.796C28.2631 142.796 25.033 149.394 21.6684 157.339Z" fill="#FFFFFF"/>
<path d="M265.403 199.084L209.281 255.237L209.55 386.395L209.954 517.419L222.336 507.858C229.2 502.606 238.755 494.527 243.6 490.083L252.349 481.869V390.166V298.463L298.781 251.87L345.213 205.413L341.041 190.6C336.868 175.788 324.083 142.796 322.468 142.796C322.064 142.796 296.358 168.112 265.403 199.084Z" fill="#FFFFFF"/>
<path d="M1.21127 236.654C0.538344 243.252 0 256.18 0 265.606V282.708L20.5916 303.445L41.0487 324.048V367.678V411.307L48.1817 422.08C58.0065 437.162 81.1553 465.979 83.4433 465.979C83.847 465.979 84.1162 429.89 84.1162 385.722V305.33L43.875 265.202C21.6683 242.983 3.23006 224.939 2.96089 224.939C2.55713 224.939 1.74962 230.19 1.21127 236.654Z" fill="#FFFFFF"/>
<path d="M307.125 265.067L267.153 305.061V385.856L267.288 466.652L274.421 458.976C283.034 449.954 291.782 438.643 302.414 423.157L310.22 411.576V367.408V323.24L330.543 302.771L351 282.438L350.327 254.967C349.923 239.886 349.116 226.958 348.443 226.285C347.635 225.477 332.158 240.02 307.125 265.067Z" fill="#FFFFFF"/>
<path d="M3.36465 309.639C3.36465 315.295 11.1706 345.055 16.4195 359.059C25.8405 384.914 26.1097 384.779 26.2443 355.558V330.646L14.8045 319.2C8.47892 312.871 3.36465 308.697 3.36465 309.639Z" fill="#FFFFFF"/>
<path d="M335.792 318.527L325.025 329.03L325.16 355.423L325.294 381.816L328.39 375.083C335.657 359.867 349.52 310.986 347.366 308.696C346.962 308.292 341.714 312.736 335.792 318.527Z" fill="#FFFFFF"/>
<path d="M191.861 28.1936H160.751V515.36H191.861V28.1936Z" fill="#FFFFFF"/>
<path d="M176.289 0L192.151 28.231H160.426L176.289 0Z" fill="#FFFFFF"/>
</g>
<defs>
<clipPath id="clip0_16_2">
<rect width="351" height="518" fill="white"/>
</clipPath>
</defs>
</svg>
