<?xml version="1.0" encoding="iso-8859-1"?>
<!-- Uploaded to: SVG Repo, www.svgrepo.com, Generator: SVG Repo Mixer Tools -->
<svg height="800px" width="800px" version="1.1" id="Layer_1" xmlns="http://www.w3.org/2000/svg" xmlns:xlink="http://www.w3.org/1999/xlink" 
	 viewBox="0 0 512 512" xml:space="preserve">
<g>
	<path style="fill:#DAE7EF;" d="M300.577,44.138h-89.15c-4.634,0-8.395-3.752-8.395-8.386V17.611c0-9.728,7.892-17.611,17.62-17.611
		h70.7c9.728,0,17.611,7.883,17.611,17.611v18.141C308.963,40.386,305.211,44.138,300.577,44.138"/>
	<path style="fill:#AEC3CE;" d="M256,79.448c9.19,0,18.052,1.359,26.483,3.752V44.138h-52.966V83.2
		C237.948,80.808,246.81,79.448,256,79.448"/>
	<path style="fill:#DAE7EF;" d="M344.276,247.172c0-14.566-11.917-26.483-26.483-26.483c14.565,0,26.483-11.917,26.483-26.483
		c0-14.566-11.917-26.483-26.483-26.483h17.699c4.979,0,8.819-4.37,8.298-9.322c-4.661-44.367-42.187-78.954-87.79-78.954
		s-83.129,34.586-87.79,78.954c-0.521,4.952,3.319,9.322,8.298,9.322h17.699c-14.566,0-26.483,11.917-26.483,26.483
		c0,14.566,11.917,26.483,26.483,26.483c-14.566,0-26.483,11.917-26.483,26.483c0,14.566,11.917,26.483,26.483,26.483
		c-18.564,0-32.821,19.359-23.596,38.886c4.202,8.907,13.745,14.08,23.596,14.08l0,0c-9.746,0-17.655,7.91-17.655,17.655v117.539
		c0,27.719,22.466,50.185,50.185,50.185h58.527c27.719,0,50.185-22.466,50.185-50.185V344.276c0-9.746-7.91-17.655-17.655-17.655
		l0,0c9.852,0,19.394-5.173,23.596-14.08c9.225-19.527-5.032-38.886-23.596-38.886C332.359,273.655,344.276,261.738,344.276,247.172
		"/>
	<g>
		<path style="fill:#AEC3CE;" d="M282.483,176.552h-52.966c-4.873,0-8.828-3.946-8.828-8.828c0-4.882,3.955-8.828,8.828-8.828
			h52.966c4.873,0,8.828,3.946,8.828,8.828C291.31,172.606,287.356,176.552,282.483,176.552"/>
		<path style="fill:#AEC3CE;" d="M282.483,229.517h-52.966c-4.873,0-8.828-3.946-8.828-8.828c0-4.882,3.955-8.828,8.828-8.828
			h52.966c4.873,0,8.828,3.946,8.828,8.828C291.31,225.571,287.356,229.517,282.483,229.517"/>
		<path style="fill:#AEC3CE;" d="M282.483,282.483h-52.966c-4.873,0-8.828-3.946-8.828-8.828c0-4.882,3.955-8.828,8.828-8.828
			h52.966c4.873,0,8.828,3.946,8.828,8.828C291.31,278.537,287.356,282.483,282.483,282.483"/>
		<path style="fill:#AEC3CE;" d="M282.483,335.448h-52.966c-4.873,0-8.828-3.946-8.828-8.828c0-4.882,3.955-8.828,8.828-8.828
			h52.966c4.873,0,8.828,3.946,8.828,8.828C291.31,331.502,287.356,335.448,282.483,335.448"/>
	</g>
</g>
</svg>